<svg xmlns="http://www.w3.org/2000/svg" viewBox="0 0 240 48" fill="none">
  <!-- FORGED Logo - Pixel forge aesthetic, amber on transparent -->

  <!-- Anvil/Forge icon -->
  <rect x="4" y="8" width="4" height="4" fill="#D4A84B"/>
  <rect x="8" y="8" width="4" height="4" fill="#D4A84B"/>
  <rect x="12" y="8" width="4" height="4" fill="#D4A84B"/>
  <rect x="16" y="8" width="4" height="4" fill="#D4A84B"/>
  <rect x="20" y="8" width="4" height="4" fill="#D4A84B"/>

  <rect x="0" y="12" width="4" height="4" fill="#D4A84B"/>
  <rect x="4" y="12" width="4" height="4" fill="#C65D07"/>
  <rect x="8" y="12" width="4" height="4" fill="#ff6b35"/>
  <rect x="12" y="12" width="4" height="4" fill="#ff6b35"/>
  <rect x="16" y="12" width="4" height="4" fill="#C65D07"/>
  <rect x="20" y="12" width="4" height="4" fill="#D4A84B"/>
  <rect x="24" y="12" width="4" height="4" fill="#D4A84B"/>

  <rect x="4" y="16" width="4" height="4" fill="#D4A84B"/>
  <rect x="8" y="16" width="4" height="4" fill="#D4A84B"/>
  <rect x="12" y="16" width="4" height="4" fill="#D4A84B"/>
  <rect x="16" y="16" width="4" height="4" fill="#D4A84B"/>
  <rect x="20" y="16" width="4" height="4" fill="#D4A84B"/>

  <!-- Anvil base -->
  <rect x="0" y="20" width="4" height="4" fill="#8a6e30"/>
  <rect x="4" y="20" width="4" height="4" fill="#D4A84B"/>
  <rect x="8" y="20" width="4" height="4" fill="#D4A84B"/>
  <rect x="12" y="20" width="4" height="4" fill="#D4A84B"/>
  <rect x="16" y="20" width="4" height="4" fill="#D4A84B"/>
  <rect x="20" y="20" width="4" height="4" fill="#D4A84B"/>
  <rect x="24" y="20" width="4" height="4" fill="#8a6e30"/>

  <rect x="8" y="24" width="4" height="4" fill="#8a6e30"/>
  <rect x="12" y="24" width="4" height="4" fill="#D4A84B"/>
  <rect x="16" y="24" width="4" height="4" fill="#8a6e30"/>

  <rect x="4" y="28" width="4" height="4" fill="#8a6e30"/>
  <rect x="8" y="28" width="4" height="4" fill="#D4A84B"/>
  <rect x="12" y="28" width="4" height="4" fill="#D4A84B"/>
  <rect x="16" y="28" width="4" height="4" fill="#D4A84B"/>
  <rect x="20" y="28" width="4" height="4" fill="#8a6e30"/>

  <!-- Spark pixels -->
  <rect x="24" y="4" width="2" height="2" fill="#ff6b35" opacity="0.8"/>
  <rect x="28" y="6" width="2" height="2" fill="#C65D07" opacity="0.6"/>
  <rect x="22" y="2" width="2" height="2" fill="#ff6b35" opacity="0.5"/>

  <!-- FORGED text -->
  <text x="40" y="26" font-family="'Space Mono', 'Courier New', monospace" font-weight="700" font-size="22" letter-spacing="0.2em" fill="#D4A84B">FORGED</text>

  <!-- Subtitle -->
  <text x="40" y="38" font-family="'Inter', 'Helvetica Neue', sans-serif" font-weight="400" font-size="7" letter-spacing="0.15em" fill="#8a6e30">AGENTIC AI DEVELOPMENT FRAMEWORK</text>
</svg>